<?xml version="1.0" standalone="no"?><!DOCTYPE svg PUBLIC "-//W3C//DTD SVG 1.1//EN" "http://www.w3.org/Graphics/SVG/1.1/DTD/svg11.dtd"><svg t="1597913256797" class="icon" viewBox="0 0 1024 1024" version="1.1" xmlns="http://www.w3.org/2000/svg" p-id="2425" xmlns:xlink="http://www.w3.org/1999/xlink" width="200" height="200"><defs><style type="text/css"></style></defs><path d="M127.488 449.472H896a64 64 0 0 0 64-64v-192a64 64 0 0 0-64-64H127.488a64 64 0 0 0-64 64v192a64 64 0 0 0 64 64z m0-64v-192H896v192H127.488z m-64 384v-192a64 64 0 0 1 64-64H896a64 64 0 0 1 64 64v192a64 64 0 0 1-64 64H127.488a64 64 0 0 1-64-64z m64 0H896v-192H127.488v192z m192.512-64a32 32 0 1 1 0-64h64a32 32 0 1 1 0 64H320z m0-384h64a32 32 0 1 0 0-64H320a32 32 0 0 0 0 64z" fill="#ffffff" p-id="2426"></path></svg>