<?xml version="1.0" standalone="no"?><!DOCTYPE svg PUBLIC "-//W3C//DTD SVG 1.1//EN" "http://www.w3.org/Graphics/SVG/1.1/DTD/svg11.dtd"><svg t="1597913639180" class="icon" viewBox="0 0 1024 1024" version="1.1" xmlns="http://www.w3.org/2000/svg" p-id="2311" xmlns:xlink="http://www.w3.org/1999/xlink" width="200" height="200"><defs><style type="text/css"></style></defs><path d="M598.109091 516.654545L729.6 384c18.618182-18.618182 18.618182-47.709091 0-66.327273L713.309091 302.545455c-18.618182-18.618182-47.709091-18.618182-66.327273 0L516.654545 434.036364 384 302.545455c-18.618182-18.618182-47.709091-18.618182-66.327273 0L302.545455 318.836364c-18.618182 18.618182-18.618182 47.709091 0 66.327272l131.490909 131.490909L302.545455 648.145455c-18.618182 18.618182-18.618182 47.709091 0 66.327272l16.290909 16.290909c18.618182 18.618182 47.709091 18.618182 66.327272 0l131.490909-131.490909 131.49091 131.490909c18.618182 18.618182 47.709091 18.618182 66.327272 0l16.290909-16.290909c18.618182-18.618182 18.618182-47.709091 0-66.327272L598.109091 516.654545z" fill="#ffffff" p-id="2312"></path><path d="M598.109091 516.654545L729.6 384c18.618182-18.618182 18.618182-47.709091 0-66.327273L713.309091 302.545455c-18.618182-18.618182-47.709091-18.618182-66.327273 0L516.654545 434.036364 384 302.545455c-18.618182-18.618182-47.709091-18.618182-66.327273 0L302.545455 318.836364c-18.618182 18.618182-18.618182 47.709091 0 66.327272l131.490909 131.490909L302.545455 648.145455c-18.618182 18.618182-18.618182 47.709091 0 66.327272l16.290909 16.290909c18.618182 18.618182 47.709091 18.618182 66.327272 0l131.490909-131.490909 131.49091 131.490909c18.618182 18.618182 47.709091 18.618182 66.327272 0l16.290909-16.290909c18.618182-18.618182 18.618182-47.709091 0-66.327272L598.109091 516.654545z" fill="#ffffff" p-id="2313"></path></svg>