<?xml version="1.0" standalone="no"?><!DOCTYPE svg PUBLIC "-//W3C//DTD SVG 1.1//EN" "http://www.w3.org/Graphics/SVG/1.1/DTD/svg11.dtd"><svg t="1597914188263" class="icon" viewBox="0 0 1024 1024" version="1.1" xmlns="http://www.w3.org/2000/svg" p-id="2374" xmlns:xlink="http://www.w3.org/1999/xlink" width="200" height="200"><defs><style type="text/css"></style></defs><path d="M170.666667 0h682.666666a170.666667 170.666667 0 0 1 170.666667 170.666667v682.666666a170.666667 170.666667 0 0 1-170.666667 170.666667H170.666667a170.666667 170.666667 0 0 1-170.666667-170.666667V170.666667a170.666667 170.666667 0 0 1 170.666667-170.666667z" fill="#ffffff" p-id="2375" data-spm-anchor-id="a313x.7781069.0.i10" class=""></path><path d="M597.333333 640v85.333333H256a42.666667 42.666667 0 0 1 0-85.333333h341.333333z m0-170.666667v85.333334H256a42.666667 42.666667 0 0 1 0-85.333334h341.333333z m0-170.666666v85.333333H256a42.666667 42.666667 0 1 1 0-85.333333h341.333333z" fill="#7ca60d" p-id="2376" data-spm-anchor-id="a313x.7781069.0.i17" class=""></path><path d="M768 640a42.666667 42.666667 0 0 1 0 85.333333h-170.666667v-85.333333h170.666667z m0-170.666667a42.666667 42.666667 0 0 1 0 85.333334h-170.666667v-85.333334h170.666667z m0-170.666666a42.666667 42.666667 0 0 1 0 85.333333h-170.666667V298.666667h170.666667z" fill="#7ca60d" p-id="2377" data-spm-anchor-id="a313x.7781069.0.i13" class="selected"></path></svg>